<svg width="35" height="27" viewBox="0 0 35 27" fill="none" xmlns="http://www.w3.org/2000/svg">
<path id="Vector" d="M22.25 8.5H28.5M22.25 13.5H28.5M22.25 18.5H28.5M4.75 26H29.75C30.7446 26 31.6984 25.6049 32.4016 24.9016C33.1049 24.1984 33.5 23.2446 33.5 22.25V4.75C33.5 3.75544 33.1049 2.80161 32.4016 2.09835C31.6984 1.39509 30.7446 1 29.75 1H4.75C3.75544 1 2.80161 1.39509 2.09835 2.09835C1.39509 2.80161 1 3.75544 1 4.75V22.25C1 23.2446 1.39509 24.1984 2.09835 24.9016C2.80161 25.6049 3.75544 26 4.75 26ZM14.75 9.125C14.75 9.53538 14.6692 9.94174 14.5121 10.3209C14.3551 10.7 14.1249 11.0445 13.8347 11.3347C13.5445 11.6249 13.2 11.8551 12.8209 12.0121C12.4417 12.1692 12.0354 12.25 11.625 12.25C11.2146 12.25 10.8083 12.1692 10.4291 12.0121C10.05 11.8551 9.70547 11.6249 9.41529 11.3347C9.12511 11.0445 8.89492 10.7 8.73788 10.3209C8.58083 9.94174 8.5 9.53538 8.5 9.125C8.5 8.2962 8.82924 7.50134 9.41529 6.91529C10.0013 6.32924 10.7962 6 11.625 6C12.4538 6 13.2487 6.32924 13.8347 6.91529C14.4208 7.50134 14.75 8.2962 14.75 9.125ZM16.9067 19.685C15.2805 20.5512 13.4658 21.0028 11.6233 21C9.782 21.0023 7.9685 20.5506 6.34333 19.685C6.74048 18.6037 7.45991 17.6704 8.40444 17.0111C9.34898 16.3518 10.4731 15.9983 11.625 15.9983C12.7769 15.9983 13.901 16.3518 14.8456 17.0111C15.7901 17.6704 16.5095 18.6037 16.9067 19.685Z" stroke="#001E2C" stroke-width="2" stroke-linecap="round" stroke-linejoin="round"/>
</svg>
